<?xml version="1.0" encoding="UTF-8"?><svg xmlns="http://www.w3.org/2000/svg" width="30px" height="30px" fill="none" stroke-width="1" viewBox="0 0 24 24" color="#000000"><path stroke="#000000" stroke-width="1" stroke-linecap="round" d="M12 21V7a2 2 0 0 1 2-2h7.4a.6.6 0 0 1 .6.6v13.114M12 21V7a2 2 0 0 0-2-2H2.6a.6.6 0 0 0-.6.6v13.114M14 19h8M10 19H2"></path><path stroke="#000000" stroke-width="1" stroke-linecap="round" stroke-linejoin="round" d="M12 21a2 2 0 0 1 2-2M12 21a2 2 0 0 0-2-2"></path></svg>