<?xml version="1.0" encoding="UTF-8"?><svg xmlns="http://www.w3.org/2000/svg" width="30px" height="30px" fill="none" stroke-width="1" viewBox="0 0 24 24" color="#000000"><path stroke="#000000" stroke-width="1" stroke-linecap="round" d="M7 18v-1a5 5 0 0 1 5-5v0a5 5 0 0 1 5 5v1"></path><path stroke="#000000" stroke-width="1" stroke-linecap="round" stroke-linejoin="round" d="M12 12a3 3 0 1 0 0-6 3 3 0 0 0 0 6Z"></path><path stroke="#000000" stroke-width="1" stroke-linecap="round" stroke-linejoin="round" d="M21 3.6v16.8a.6.6 0 0 1-.6.6H3.6a.6.6 0 0 1-.6-.6V3.6a.6.6 0 0 1 .6-.6h16.8a.6.6 0 0 1 .6.6Z"></path></svg>